# xmcd CD database file
#
# Track frame offsets:
#	150
#	15913
#	31612
#	49521
#	69507
#	85582
#	102055
#	117846
#	137236
#	156226
#	174397
#	193075
#	207832
#	228964
#	250147
#
# Disc length: 3573 seconds
#
# Revision: 5
# Processed by: cddbd v1.5.2PL0 Copyright (c) Steve Scherf et al.
# Submitted via: CDex 1.51
#
DISCID=b20df30f
DTITLE=Various Artist - SFMW-272**
DYEAR=1900
DGENRE=Blues
TTITLE0=Alex Parks - Looking For Water
TTITLE1=Beatles The - Here Comes The Sun
TTITLE2=Daniel Powter - Free Loop
TTITLE3=George Baker Selection - Liitle Green Bag
TTITLE4=Isaac Hayes - Theme From Shaft
TTITLE5=Jimmy Hendrix - Foxy Lady
TTITLE6=Jonathan King - Una Paloma Blanca
TTITLE7=Lenny Kravtz - Always On The Run
TTITLE8=Mariah Carey - Dreamlover
TTITLE9=Marshall Hain - Dancing In The City
TTITLE10=Python Lee Jackson - In A Broken Dream
TTITLE11=Romantics - What I Like About You
TTITLE12=Ronan Keating and Brian Kennedy - Now That I Know What I Want
TTITLE13=Scissor Sisters - Comfortably Numb
TTITLE14=Wilson Phillips - Hold On
EXTD=
EXTT0=
EXTT1=
EXTT2=
EXTT3=
EXTT4=
EXTT5=
EXTT6=
EXTT7=
EXTT8=
EXTT9=
EXTT10=
EXTT11=
EXTT12=
EXTT13=
EXTT14=
PLAYORDER=
